<svg
        width="15"
        height="15"
        viewBox="136.5443115234375 72.64500427246094 163.60855102539062 101.22599792480469"
        class="css-1j8o68f"
        xmlns="http://www.w3.org/2000/svg"
      >
        <g xmlns="http://www.w3.org/2000/svg" fill="#ffb26b">
          <path d="M284.378 121.5c2.405-7.217 1.11-17.21-5.182-23.133-6.662-6.476-17.95-8.328-26.462-4.07-6.662-12.584-22.761-21.652-39.047-21.652-4.257 0-8.328.556-12.029 1.85-17.58 5.551-34.05 21.651-33.494 42.749-1.85-.37-3.887-.556-5.922-.556-13.324 0-24.057 9.068-25.538 21.651-.74 6.107 1.11 11.66 5.181 16.1 6.107 6.663 17.025 10.734 29.61 10.734h25.537v-5.922h-25.353c-10.917 0-20.356-3.33-25.167-8.698-2.962-3.145-4.071-7.032-3.701-11.473 1.11-9.438 9.252-16.47 19.616-16.47 2.775 0 5.55.555 8.142 1.479l4.626 1.85-.74-4.997c-2.776-19.8 12.399-35.53 29.053-40.712 3.33-1.11 6.847-1.48 10.363-1.48 14.99 0 30.35 9.253 34.976 21.096l1.48 3.7 3.145-2.22c2.962-2.037 6.107-3.146 9.623-3.146 4.441 0 9.067 1.85 12.213 4.811 5.182 4.997 5.55 14.435 2.591 19.431l-2.405 4.071 4.627.555c7.216.74 14.989 8.698 14.434 18.32-.556 8.143-7.772 14.435-17.025 14.435h-3.517v5.922h3.146c12.4 0 22.207-8.513 22.946-19.986.74-12.03-7.216-21.467-15.73-24.242z" />
          <path d="m229.6 164.616-28.313-12.952v12.77c1.85 3.33 14.99 8.697 28.313 9.437 13.509-.555 26.462-6.107 28.313-9.438v-12.769L229.6 164.617z" />
          <path d="m229.6 118.538-51.445 18.876 51.445 23.502 51.445-23.503-51.445-18.875zm0 19.06c-2.405 0-4.07-2.404-4.257-3.515l.37-.37s1.666.925 3.887.925c2.405 0 3.887-.925 3.887-.925l.37.37c-.185 1.11-1.85 3.516-4.257 3.516z" />
          <path d="M261.061 142.966h2.405v28.683h-2.405zm7.956-2.59h2.405v28.683h-2.405zm-3.885 1.11h2.405v31.645h-2.405z" />
        </g>
      </svg>